<svg xmlns="http://www.w3.org/2000/svg">
  <defs>
    
  </defs>

  <symbol id="i-search" viewBox="0 0 24 24"><circle cx="10.5" cy="10.5" r="6.5"></circle><path d="m15.2 15.2 4.3 4.3"></path></symbol>
  <symbol id="i-cart" viewBox="0 0 24 24"><path d="M3 4h2.2l2.1 11.5a1.5 1.5 0 0 0 1.5 1.2h8.4a1.5 1.5 0 0 0 1.5-1.1L21 8H6.2"></path><circle cx="9.5" cy="20" r="1.1"></circle><circle cx="17.5" cy="20" r="1.1"></circle></symbol>
  <symbol id="i-bag" viewBox="0 0 24 24"><path d="M5 8h14l-1 12.5a1 1 0 0 1-1 .9H7a1 1 0 0 1-1-.9L5 8Z"></path><path d="M9 8V6a3 3 0 0 1 6 0v2"></path></symbol>
  <symbol id="i-heart" viewBox="0 0 24 24"><path d="M12 20.5s-7.5-4.6-7.5-10.1A4.4 4.4 0 0 1 12 7.4a4.4 4.4 0 0 1 7.5 3A11.7 11.7 0 0 1 12 20.5Z"></path></symbol>
  <symbol id="i-heart-fill" viewBox="0 0 24 24"><path d="M12 20.5s-7.5-4.6-7.5-10.1A4.4 4.4 0 0 1 12 7.4a4.4 4.4 0 0 1 7.5 3A11.7 11.7 0 0 1 12 20.5Z" fill="currentColor"></path></symbol>
  <symbol id="i-user" viewBox="0 0 24 24"><circle cx="12" cy="8.5" r="3.5"></circle><path d="M5 20.5c.9-3.6 3.7-5.5 7-5.5s6.1 1.9 7 5.5"></path></symbol>
  <symbol id="i-menu" viewBox="0 0 24 24"><path d="M4 7h16M4 12h16M4 17h16"></path></symbol>
  <symbol id="i-close" viewBox="0 0 24 24"><path d="m6 6 12 12M18 6 6 18"></path></symbol>
  <symbol id="i-plus" viewBox="0 0 24 24"><path d="M12 5v14M5 12h14"></path></symbol>
  <symbol id="i-minus" viewBox="0 0 24 24"><path d="M5 12h14"></path></symbol>
  <symbol id="i-check" viewBox="0 0 24 24"><path d="m5 12.5 4.5 4.5L19 7.5"></path></symbol>
  <symbol id="i-arrow-right" viewBox="0 0 24 24"><path d="M5 12h14M13 6l6 6-6 6"></path></symbol>
  <symbol id="i-arrow-left" viewBox="0 0 24 24"><path d="M19 12H5m6-6-6 6 6 6"></path></symbol>
  <symbol id="i-chevron-down" viewBox="0 0 24 24"><path d="m6 10 6 6 6-6"></path></symbol>
  <symbol id="i-chevron-up" viewBox="0 0 24 24"><path d="m6 14 6-6 6 6"></path></symbol>
  <symbol id="i-chevron-right" viewBox="0 0 24 24"><path d="m10 6 6 6-6 6"></path></symbol>
  <symbol id="i-chevron-left" viewBox="0 0 24 24"><path d="m14 6-6 6 6 6"></path></symbol>
  <symbol id="i-star" viewBox="0 0 24 24"><path d="m12 4 2.6 5.3 5.8.8-4.2 4.1 1 5.8L12 17.3l-5.2 2.7 1-5.8L3.6 10.1l5.8-.8L12 4Z"></path></symbol>
  <symbol id="i-star-fill" viewBox="0 0 24 24"><path d="m12 4 2.6 5.3 5.8.8-4.2 4.1 1 5.8L12 17.3l-5.2 2.7 1-5.8L3.6 10.1l5.8-.8L12 4Z" fill="currentColor"></path></symbol>
  <symbol id="i-filter" viewBox="0 0 24 24"><path d="M4 6h16M7 12h10M10 18h4"></path></symbol>
  <symbol id="i-sort" viewBox="0 0 24 24"><path d="M7 5v14M3 9l4-4 4 4M17 19V5m-4 10 4 4 4-4"></path></symbol>
  <symbol id="i-share" viewBox="0 0 24 24"><circle cx="6" cy="12" r="2.5"></circle><circle cx="18" cy="6" r="2.5"></circle><circle cx="18" cy="18" r="2.5"></circle><path d="m8.2 10.8 7.6-3.6M8.2 13.2l7.6 3.6"></path></symbol>
  <symbol id="i-info" viewBox="0 0 24 24"><circle cx="12" cy="12" r="8"></circle><path d="M12 11v5M12 8.5v.01"></path></symbol>
  <symbol id="i-help" viewBox="0 0 24 24"><circle cx="12" cy="12" r="8"></circle><path d="M9.5 9.5a2.5 2.5 0 0 1 5 0c0 1.5-2.5 2-2.5 3.5M12 16.5v.01"></path></symbol>
  <symbol id="i-alert" viewBox="0 0 24 24"><path d="M12 3 2 20h20L12 3Z"></path><path d="M12 10v4M12 17v.01"></path></symbol>
  <symbol id="i-play" viewBox="0 0 24 24"><path d="M7 5v14l12-7L7 5Z"></path></symbol>
  <symbol id="i-pause" viewBox="0 0 24 24"><path d="M9 5v14M15 5v14"></path></symbol>
  <symbol id="i-camera" viewBox="0 0 24 24"><path d="M4 8h3l1.5-2h7L17 8h3v12H4V8Z"></path><circle cx="12" cy="13.5" r="3.5"></circle></symbol>
  <symbol id="i-truck" viewBox="0 0 24 24"><path d="M2 7h12v10H2V7Z"></path><path d="M14 10h4.5L22 13.5V17h-8"></path><circle cx="7" cy="18" r="1.5"></circle><circle cx="17" cy="18" r="1.5"></circle></symbol>
  <symbol id="i-calendar" viewBox="0 0 24 24"><rect x="3" y="5" width="18" height="16" rx="1"></rect><path d="M3 10h18M8 3v4M16 3v4"></path></symbol>
  <symbol id="i-clock" viewBox="0 0 24 24"><circle cx="12" cy="12" r="8"></circle><path d="M12 8v4.5l3 1.5"></path></symbol>
  <symbol id="i-location" viewBox="0 0 24 24"><path d="M12 21s7-6 7-11a7 7 0 0 0-14 0c0 5 7 11 7 11Z"></path><circle cx="12" cy="10" r="2.5"></circle></symbol>
  <symbol id="i-gift" viewBox="0 0 24 24"><rect x="3" y="9" width="18" height="11"></rect><path d="M3 13h18M12 9v11M8 9a2.5 2.5 0 1 1 4-2.5A2.5 2.5 0 1 1 16 9"></path></symbol>
  <symbol id="i-sparkle" viewBox="0 0 24 24"><path d="M12 3v5M12 16v5M3 12h5M16 12h5M5.5 5.5 9 9M15 15l3.5 3.5M18.5 5.5 15 9M9 15l-3.5 3.5"></path></symbol>
  <symbol id="i-scissors" viewBox="0 0 24 24"><circle cx="6" cy="7" r="2.5"></circle><circle cx="6" cy="17" r="2.5"></circle><path d="m8 9 12 10M8 15 20 5"></path></symbol>
  <symbol id="i-droplet" viewBox="0 0 24 24"><path d="M12 3s-6 6-6 11a6 6 0 0 0 12 0c0-5-6-11-6-11Z"></path></symbol>
  <symbol id="i-leaf" viewBox="0 0 24 24"><path d="M5 19c2-10 7-14 15-14-1 8-5 13-15 14Z"></path><path d="M5 19c4-4 8-6 13-7"></path></symbol>
  <symbol id="i-message" viewBox="0 0 24 24"><path d="M4 5h16v11H9l-5 4V5Z"></path></symbol>
  <symbol id="i-send" viewBox="0 0 24 24"><path d="M22 3 10 15M22 3l-7 18-4-9-8-4 19-5Z"></path></symbol>
  <symbol id="i-tag" viewBox="0 0 24 24"><path d="m12 3 9 9-9 9-9-9V3h9Z"></path><circle cx="8" cy="8" r="1.2"></circle></symbol>
  <symbol id="i-reload" viewBox="0 0 24 24"><path d="M4 12a8 8 0 0 1 14-5.5M20 4v4h-4M20 12a8 8 0 0 1-14 5.5M4 20v-4h4"></path></symbol>
  <symbol id="i-settings" viewBox="0 0 24 24"><circle cx="12" cy="12" r="3"></circle><path d="M19.4 15a1.6 1.6 0 0 0 .3 1.8l.1.1a2 2 0 1 1-2.8 2.8l-.1-.1a1.6 1.6 0 0 0-1.8-.3 1.6 1.6 0 0 0-1 1.5v.2a2 2 0 1 1-4 0v-.1a1.6 1.6 0 0 0-1-1.5 1.6 1.6 0 0 0-1.8.3l-.1.1a2 2 0 1 1-2.8-2.8l.1-.1a1.6 1.6 0 0 0 .3-1.8 1.6 1.6 0 0 0-1.5-1H2a2 2 0 1 1 0-4h.1a1.6 1.6 0 0 0 1.5-1 1.6 1.6 0 0 0-.3-1.8l-.1-.1a2 2 0 1 1 2.8-2.8l.1.1a1.6 1.6 0 0 0 1.8.3H8a1.6 1.6 0 0 0 1-1.5V2a2 2 0 1 1 4 0v.1a1.6 1.6 0 0 0 1 1.5 1.6 1.6 0 0 0 1.8-.3l.1-.1a2 2 0 1 1 2.8 2.8l-.1.1a1.6 1.6 0 0 0-.3 1.8V8a1.6 1.6 0 0 0 1.5 1H22a2 2 0 1 1 0 4h-.1a1.6 1.6 0 0 0-1.5 1Z"></path></symbol>
</svg>